<svg version="1.1" id="Layer_1" xmlns="http://www.w3.org/2000/svg" xmlns:xlink="http://www.w3.org/1999/xlink" x="0px" y="0px"
	 width="100%" viewBox="0 0 827 827" enable-background="new 0 0 827 827" xml:space="preserve">
<path fill="#013BBE" opacity="1.000000" stroke="none" 
	d="
M374.000000,1.000004 
	C400.687561,1.000000 427.375122,1.000000 454.433594,1.419587 
	C455.315186,2.199712 455.788300,2.798756 456.342102,2.886030 
	C471.569641,5.285882 486.907074,7.118420 502.018341,10.099118 
	C531.894653,15.992233 560.666077,25.625185 588.113953,38.755745 
	C603.496826,46.114666 618.419006,54.522141 633.147827,63.142136 
	C653.052612,74.791283 671.360779,88.802177 688.479736,104.196976 
	C699.804016,114.380661 710.647095,125.206512 720.805420,136.550995 
	C731.987976,149.039398 742.898804,161.912262 752.588074,175.568390 
	C775.412598,207.737488 793.403625,242.553497 806.023071,279.994385 
	C816.052307,309.750183 823.341125,340.144531 826.086975,371.523010 
	C826.163513,372.397797 827.337646,373.176514 828.000000,374.000000 
	C828.000000,400.687561 828.000000,427.375122 827.580383,454.433594 
	C826.800232,455.315155 826.201904,455.788055 826.113953,456.341980 
	C823.723022,471.404877 821.821594,486.560059 818.944641,501.528107 
	C813.163269,531.608398 803.418945,560.506104 790.240540,588.106689 
	C782.963257,603.348083 774.467957,618.036194 766.017944,632.683167 
	C752.313049,656.438782 734.993530,677.554626 716.586121,697.743347 
	C709.218811,705.823669 701.159851,713.352539 692.858948,720.484253 
	C680.007446,731.525513 667.229065,742.786438 653.441223,752.576233 
	C621.278931,775.412598 586.460144,793.407043 549.014282,806.021912 
	C519.254639,816.047302 488.859009,823.342834 457.477356,826.087036 
	C456.602478,826.163635 455.823608,827.337708 455.000000,828.000000 
	C428.312439,828.000000 401.624878,828.000000 374.566406,827.580383 
	C373.684784,826.800293 373.211884,826.201782 372.657928,826.113892 
	C357.595825,823.723022 342.441498,821.821106 327.474091,818.945007 
	C297.394775,813.164978 268.502808,803.410767 240.897141,790.247314 
	C225.505310,782.907898 210.589874,774.482727 195.859924,765.862976 
	C175.954163,754.214417 157.647018,740.201355 140.526108,724.808350 
	C129.200256,714.625671 118.357933,703.798035 108.199135,692.453247 
	C97.015999,679.964539 86.102654,667.092590 76.414619,653.434998 
	C53.593899,621.263855 35.590714,586.454102 22.976795,549.009521 
	C12.952067,519.251038 5.658491,488.856903 2.912896,457.477173 
	C2.836357,456.602386 1.662284,455.823578 0.999996,455.000000 
	C1.000000,428.312439 1.000000,401.624878 1.419589,374.566406 
	C2.199702,373.684845 2.798138,373.211945 2.886068,372.658020 
	C5.276926,357.595764 7.178118,342.441071 10.055155,327.473724 
	C15.836953,297.394806 25.586372,268.501068 38.753628,240.896362 
	C46.095146,225.505112 54.516697,210.587601 63.137836,195.858292 
	C74.787796,175.954224 88.796898,157.644608 104.191788,140.525574 
	C114.375977,129.200806 125.202393,118.357307 136.547256,108.198425 
	C149.035629,97.015572 161.907288,86.102600 175.564529,76.414917 
	C207.736343,53.594036 242.546570,35.590786 279.992035,22.976723 
	C309.750244,12.952211 340.144958,5.664779 371.522766,2.912969 
	C372.397705,2.836240 373.176422,1.662313 374.000000,1.000004 
M246.908386,141.294937 
	C242.531036,137.950104 239.114578,137.858841 234.877014,141.354523 
	C229.745316,145.587799 224.708130,149.941772 219.752060,154.379776 
	C216.331909,157.442413 213.118713,160.736145 209.386276,163.956558 
	C209.386276,163.956558 209.006271,164.153137 208.328537,164.119476 
	C196.570007,174.368988 184.785141,184.588501 173.065002,194.881729 
	C167.850952,199.460938 162.767365,204.188660 157.190323,208.941818 
	C157.190323,208.941818 157.005676,209.345657 156.368332,209.450745 
	C153.214767,212.128357 149.952866,214.692093 146.960144,217.538803 
	C145.737259,218.702011 144.318985,220.474457 144.312439,221.975479 
	C144.248322,236.683838 144.463623,251.393433 144.314987,266.901459 
	C144.426651,270.261230 144.538300,273.621033 144.316360,277.867279 
	C144.279358,286.981842 144.170883,296.096802 144.224030,305.210815 
	C144.285782,315.799164 144.489243,326.386688 144.303604,337.864441 
	C144.408661,349.905060 144.513733,361.945709 144.301651,374.877319 
	C144.415482,388.261597 144.529327,401.645905 144.321548,415.911957 
	C144.431427,430.276459 144.541306,444.640991 144.318665,459.830444 
	C144.424423,461.881042 144.530197,463.931641 144.316849,466.708801 
	C144.425964,467.478088 144.535095,468.247345 144.312637,469.897034 
	C144.276230,476.857574 144.168869,483.818634 144.219681,490.778534 
	C144.300583,501.863464 144.486847,512.947632 144.308716,524.914307 
	C144.274231,534.521362 144.170303,544.128845 144.225037,553.735413 
	C144.278702,563.156189 144.493774,572.575989 144.315247,582.883606 
	C144.420792,590.924316 144.526321,598.965027 144.299179,607.887634 
	C144.263428,614.329773 144.101639,620.774536 144.234634,627.213196 
	C144.328979,631.779663 144.821457,636.338013 145.002945,641.653442 
	C145.201813,642.111694 145.400665,642.569946 145.448547,643.641113 
	C145.858551,644.344055 146.268555,645.046936 146.587921,646.281494 
	C146.821106,646.535889 147.054291,646.790283 147.236023,647.669250 
	C147.749695,648.290894 148.263367,648.912598 148.844513,650.175171 
	C150.726395,651.857422 152.608261,653.539612 154.806213,655.831482 
	C156.861679,656.631165 158.917145,657.430847 161.556305,658.755188 
	C162.066223,658.786072 162.576141,658.817017 163.744415,659.326355 
	C191.531036,659.424255 219.317642,659.536560 247.104340,659.553589 
	C247.974060,659.554138 248.844376,658.569946 250.176300,657.203430 
	C250.078705,646.802979 249.981094,636.402527 250.234222,625.122864 
	C250.120880,613.405029 250.007523,601.687256 250.255569,589.105652 
	C250.300415,576.018494 250.405258,562.931213 250.364975,549.844299 
	C250.344635,543.241028 250.061371,536.638489 250.253952,529.158020 
	C250.299957,516.040161 250.407242,502.922089 250.366241,489.804474 
	C250.345566,483.188202 250.056137,476.572723 250.243225,469.270020 
	C250.128403,459.820435 250.013565,450.370880 250.263428,440.208099 
	C250.307785,405.448578 250.346237,370.689026 250.399841,335.929504 
	C250.417862,324.247772 254.334854,320.269287 265.909210,320.258240 
	C292.022125,320.233337 318.136108,320.373077 344.247314,320.158478 
	C350.520874,320.106903 356.064270,321.271179 360.918610,325.930786 
	C361.328918,326.274475 361.739258,326.618134 362.220337,327.609650 
	C363.489563,329.052765 364.758820,330.495880 365.999481,331.990906 
	C365.999481,331.990906 366.056946,331.976288 366.147278,332.657135 
	C370.903687,338.615387 375.721375,344.525909 380.404449,350.541199 
	C392.152283,365.631226 403.803741,380.796326 415.565216,395.875671 
	C421.670471,403.703247 425.579254,403.682343 431.594940,396.010132 
	C447.607758,375.588013 463.623169,355.167877 479.612000,334.726959 
	C480.515167,333.572357 481.188965,332.238342 482.005707,330.999115 
	C482.005707,330.999115 481.985413,330.966888 482.584412,330.741882 
	C483.131897,329.856049 483.679382,328.970184 484.835724,327.840790 
	C485.904144,326.454498 486.972565,325.068207 488.690308,323.594330 
	C490.362885,322.585083 492.035492,321.575806 494.548492,320.590576 
	C495.066498,320.390228 495.584503,320.189880 496.976654,320.259460 
	C529.825378,320.267090 562.674133,320.289490 595.522827,320.234650 
	C597.018066,320.232147 598.512146,319.533295 600.170288,319.132385 
	C600.170288,319.132385 600.151550,318.967865 600.709900,318.564819 
	C600.806213,317.910126 600.986572,317.255463 600.986755,316.600739 
	C601.003601,260.460815 601.007263,204.320908 601.008789,148.181000 
	C601.008911,143.936768 599.898010,140.166061 595.815613,138.118576 
	C591.683472,136.046173 588.132812,137.633011 584.736755,140.212433 
	C566.297424,154.217667 547.819214,168.171799 529.355530,182.144928 
	C515.806641,192.398621 502.302643,202.712814 488.651337,212.828247 
	C487.119385,213.963409 484.152222,214.990234 482.931763,214.260101 
	C481.362152,213.321106 480.660858,210.625565 480.016510,208.552704 
	C479.590912,207.183563 479.917328,205.578812 479.917206,204.079559 
	C479.915771,186.088272 479.892853,168.096954 479.932343,150.105743 
	C479.942444,145.524612 479.146637,141.326736 474.571777,139.154053 
	C469.990509,136.978287 466.261169,139.021622 462.720276,141.955566 
	C449.764771,152.690292 436.715820,163.312332 423.771698,174.060654 
	C414.309326,181.917847 404.956207,189.906601 395.156616,197.902649 
	C395.156616,197.902649 395.006439,198.276810 394.356445,198.381531 
	C391.122314,201.208038 387.888184,204.034546 384.206848,206.951462 
	C384.206848,206.951462 384.010651,207.363388 383.361816,207.443268 
	C381.669220,208.786514 380.126129,210.416107 378.244995,211.398224 
	C376.051514,212.543411 372.636414,214.468140 371.419891,213.630722 
	C369.615265,212.388474 368.473480,209.025360 368.442993,206.547897 
	C368.209717,187.579987 368.280426,168.607788 368.338409,149.637192 
	C368.352295,145.095444 367.810028,140.811066 363.341400,138.483643 
	C358.609131,136.018906 354.788330,138.320480 351.058075,141.245804 
	C331.154633,156.854263 311.192749,172.388184 291.248718,187.944885 
	C280.620697,196.234924 270.044830,204.594101 259.292328,212.719528 
	C257.786499,213.857468 254.840240,214.823517 253.569794,214.099213 
	C251.986557,213.196564 251.216812,210.533646 250.545029,208.483612 
	C250.101105,207.128967 250.441010,205.515366 250.440903,204.017715 
	C250.439590,186.211823 250.592590,168.403336 250.287888,150.602661 
	C250.238190,147.699341 248.168900,144.830566 247.002090,141.997787 
	C247.002090,141.997787 247.054047,141.966812 246.908386,141.294937 
M394.059052,493.247162 
	C384.027832,480.376709 374.050995,467.462921 363.882996,454.701477 
	C362.841248,453.394043 360.560486,452.246765 359.031647,452.438232 
	C357.968872,452.571350 356.445312,455.120880 356.435272,456.599762 
	C356.355347,468.400146 356.587830,480.202637 356.381805,492.755096 
	C356.338928,523.682800 356.292145,554.610474 356.274841,585.538147 
	C356.274384,586.339294 356.596069,587.140564 356.452026,588.806152 
	C356.587708,592.869324 356.723389,596.932556 356.490936,601.770996 
	C356.607269,611.169739 356.723633,620.568481 356.457886,630.837769 
	C356.412048,636.664490 356.300018,642.491699 356.336121,648.317871 
	C356.388184,656.717224 359.371918,659.625000 367.884766,659.631104 
	C393.531189,659.649597 419.177612,659.641968 444.824036,659.641479 
	C519.098694,659.640137 593.373413,659.649048 667.648071,659.623352 
	C680.255554,659.619019 690.499207,651.742004 691.384460,639.904846 
	C692.249084,628.343567 691.478149,616.659851 691.756165,604.237488 
	C691.645813,602.831360 691.535400,601.425293 691.764832,599.134521 
	C691.649597,590.098755 691.534302,581.063049 691.757446,571.140808 
	C691.651367,564.414612 691.545227,557.688416 691.776001,550.085938 
	C691.666138,533.385254 691.556274,516.684631 691.768799,499.099976 
	C691.659180,484.405487 691.549561,469.710999 691.768555,454.128510 
	C691.667236,443.418335 691.565918,432.708191 691.785400,421.110626 
	C691.823975,410.637360 691.855225,400.164032 691.905273,389.690826 
	C691.921509,386.284760 692.000732,382.157074 688.167542,381.369202 
	C685.423767,380.805267 681.650330,381.946411 679.240417,383.624817 
	C667.783691,391.604095 656.603455,399.983398 645.393005,408.312103 
	C639.426697,412.744751 633.599060,417.363983 627.052917,421.971130 
	C625.727478,423.084686 624.401978,424.198242 622.482605,425.328827 
	C621.948120,425.869232 621.413696,426.409637 620.275696,426.972717 
	C619.871582,427.389709 619.467529,427.806702 618.447815,428.247437 
	C617.881714,428.803253 617.315613,429.359100 616.084229,430.013947 
	C598.016113,443.331757 601.170593,437.801483 600.986572,457.194855 
	C600.983459,457.519775 601.103333,457.845856 600.785767,458.695984 
	C600.913940,460.366058 601.042053,462.036163 600.992554,464.563049 
	C601.049988,465.140564 601.107361,465.718109 600.758789,466.924347 
	C600.695251,502.534760 600.639648,538.145142 600.562927,573.755554 
	C600.542603,583.187561 598.477478,585.273926 589.140808,585.278625 
	C560.183777,585.293335 531.226685,585.311157 502.269806,585.230103 
	C499.486359,585.222351 496.704773,584.533752 493.661133,583.700500 
	C493.377716,583.496582 493.094299,583.292664 492.778717,582.470215 
	C492.266479,581.856628 491.754211,581.243103 491.195190,579.749817 
	C490.916595,576.172607 490.638031,572.595398 490.728821,568.144409 
	C490.607422,561.757446 490.486023,555.370422 490.732941,548.115295 
	C490.614502,534.419128 490.496094,520.723022 490.743530,506.149872 
	C490.657928,496.452209 490.572357,486.754517 490.843140,476.226959 
	C490.895355,469.758179 491.141846,463.281036 490.863556,456.826477 
	C490.793701,455.207001 489.360687,453.039581 487.942291,452.304443 
	C487.040192,451.836853 484.613708,453.185852 483.562073,454.346619 
	C480.672394,457.536163 478.109070,461.026733 475.485291,464.450775 
	C467.430603,474.962311 459.408112,485.498474 450.976074,496.276855 
	C450.976074,496.276855 450.871002,496.735107 450.246185,496.982330 
	C446.970276,501.330719 443.694397,505.679138 440.001343,510.300385 
	C440.001343,510.300385 439.874939,510.782501 439.272552,510.982727 
	C438.362122,512.333008 437.451721,513.683228 435.968231,515.481567 
	C435.323914,516.500061 434.679626,517.518494 433.658325,518.890381 
	C433.266418,519.560425 432.874481,520.230408 431.869781,521.287292 
	C428.570312,523.217590 425.270874,525.147827 421.426727,526.697083 
	C418.786621,523.745850 416.037201,520.884277 413.527710,517.825867 
	C407.030853,509.907959 400.639801,501.903259 394.059052,493.247162 
z"/>
<path fill="#000000" opacity="1.000000" stroke="none" 
	d="
M373.531342,1.000004 
	C373.176422,1.662313 372.397705,2.836240 371.522766,2.912969 
	C340.144958,5.664779 309.750244,12.952211 279.992035,22.976723 
	C242.546570,35.590786 207.736343,53.594036 175.564529,76.414917 
	C161.907288,86.102600 149.035629,97.015572 136.547256,108.198425 
	C125.202393,118.357307 114.375977,129.200806 104.191788,140.525574 
	C88.796898,157.644608 74.787796,175.954224 63.137836,195.858292 
	C54.516697,210.587601 46.095146,225.505112 38.753628,240.896362 
	C25.586372,268.501068 15.836953,297.394806 10.055155,327.473724 
	C7.178118,342.441071 5.276926,357.595764 2.886068,372.658020 
	C2.798138,373.211945 2.199702,373.684845 1.419589,374.097778 
	C1.000000,249.739594 1.000000,125.479179 1.000000,1.000000 
	C125.020805,1.000000 249.041748,1.000000 373.531342,1.000004 
z"/>
<path fill="#000000" opacity="1.000000" stroke="none" 
	d="
M828.000000,373.531372 
	C827.337646,373.176514 826.163513,372.397797 826.086975,371.523010 
	C823.341125,340.144531 816.052307,309.750183 806.023071,279.994385 
	C793.403625,242.553497 775.412598,207.737488 752.588074,175.568390 
	C742.898804,161.912262 731.987976,149.039398 720.805420,136.550995 
	C710.647095,125.206512 699.804016,114.380661 688.479736,104.196976 
	C671.360779,88.802177 653.052612,74.791283 633.147827,63.142136 
	C618.419006,54.522141 603.496826,46.114666 588.113953,38.755745 
	C560.666077,25.625185 531.894653,15.992233 502.018341,10.099118 
	C486.907074,7.118420 471.569641,5.285882 456.342102,2.886030 
	C455.788300,2.798756 455.315186,2.199712 454.902222,1.419587 
	C579.260376,1.000000 703.520813,1.000000 828.000000,1.000000 
	C828.000000,125.020805 828.000000,249.041748 828.000000,373.531372 
z"/>
<path fill="#000000" opacity="1.000000" stroke="none" 
	d="
M455.468658,828.000000 
	C455.823608,827.337708 456.602478,826.163635 457.477356,826.087036 
	C488.859009,823.342834 519.254639,816.047302 549.014282,806.021912 
	C586.460144,793.407043 621.278931,775.412598 653.441223,752.576233 
	C667.229065,742.786438 680.007446,731.525513 692.858948,720.484253 
	C701.159851,713.352539 709.218811,705.823669 716.586121,697.743347 
	C734.993530,677.554626 752.313049,656.438782 766.017944,632.683167 
	C774.467957,618.036194 782.963257,603.348083 790.240540,588.106689 
	C803.418945,560.506104 813.163269,531.608398 818.944641,501.528107 
	C821.821594,486.560059 823.723022,471.404877 826.113953,456.341980 
	C826.201904,455.788055 826.800232,455.315155 827.580383,454.902252 
	C828.000000,579.260437 828.000000,703.520813 828.000000,828.000000 
	C703.979187,828.000000 579.958252,828.000000 455.468658,828.000000 
z"/>
<path fill="#000000" opacity="1.000000" stroke="none" 
	d="
M0.999996,455.468658 
	C1.662284,455.823578 2.836357,456.602386 2.912896,457.477173 
	C5.658491,488.856903 12.952067,519.251038 22.976795,549.009521 
	C35.590714,586.454102 53.593899,621.263855 76.414619,653.434998 
	C86.102654,667.092590 97.015999,679.964539 108.199135,692.453247 
	C118.357933,703.798035 129.200256,714.625671 140.526108,724.808350 
	C157.647018,740.201355 175.954163,754.214417 195.859924,765.862976 
	C210.589874,774.482727 225.505310,782.907898 240.897141,790.247314 
	C268.502808,803.410767 297.394775,813.164978 327.474091,818.945007 
	C342.441498,821.821106 357.595825,823.723022 372.657928,826.113892 
	C373.211884,826.201782 373.684784,826.800293 374.097717,827.580383 
	C249.739594,828.000000 125.479179,828.000000 1.000000,828.000000 
	C1.000000,703.979187 1.000000,579.958252 0.999996,455.468658 
z"/>
<path fill="#F7822B" opacity="1.000000" stroke="none" 
	d="
M144.649963,276.980774 
	C144.538300,273.621033 144.426651,270.261230 144.750275,266.188751 
	C145.451584,263.542633 145.934708,261.610748 145.948273,259.675568 
	C146.034012,247.445465 146.015701,235.214630 146.460159,222.987549 
	C165.841431,222.994827 184.794510,222.940170 203.747070,223.016266 
	C231.045273,223.125854 258.343109,223.324829 285.641022,223.498688 
	C292.103729,223.539856 298.567139,223.740692 305.028351,223.677307 
	C315.098511,223.578552 325.166901,223.177429 335.236420,223.162476 
	C345.629364,223.147018 356.022644,223.548889 366.416107,223.566727 
	C376.454590,223.583969 386.494385,223.197281 396.531982,223.258606 
	C406.742920,223.320969 416.953522,223.970734 427.161285,223.904419 
	C444.818634,223.789688 462.472504,223.174026 480.129944,223.037994 
	C501.082275,222.876556 522.036804,223.002289 542.990356,222.999313 
	C561.656128,222.996674 580.321899,222.988190 598.992554,223.452972 
	C599.222717,241.605118 599.448059,259.286591 599.236084,276.975403 
	C589.375427,276.994202 579.949890,276.882629 570.529358,277.050873 
	C560.632019,277.227661 550.739624,277.947205 540.844666,277.956604 
	C459.863708,278.033569 378.882660,278.006226 297.901611,277.979706 
	C294.261108,277.978516 290.620819,277.550201 286.980164,277.546356 
	C276.594482,277.535370 266.208038,277.740448 255.823013,277.675476 
	C242.803543,277.594025 229.784637,277.150635 216.766586,277.194580 
	C204.578156,277.235687 192.390717,277.948029 180.203705,277.924072 
	C168.351883,277.900787 156.501160,277.317932 144.649963,276.980774 
z"/>
<path fill="#F68E33" opacity="1.000000" stroke="none" 
	d="
M144.483154,277.424011 
	C156.501160,277.317932 168.351883,277.900787 180.203705,277.924072 
	C192.390717,277.948029 204.578156,277.235687 216.766586,277.194580 
	C229.784637,277.150635 242.803543,277.594025 255.823013,277.675476 
	C266.208038,277.740448 276.594482,277.535370 286.980164,277.546356 
	C290.620819,277.550201 294.261108,277.978516 297.901611,277.979706 
	C378.882660,278.006226 459.863708,278.033569 540.844666,277.956604 
	C550.739624,277.947205 560.632019,277.227661 570.529358,277.050873 
	C579.949890,276.882629 589.375427,276.994202 599.314941,277.442474 
	C599.937927,291.590759 600.044739,305.279327 600.151611,318.967865 
	C600.151550,318.967865 600.170288,319.132385 599.625061,319.100159 
	C566.334473,319.050598 533.589050,319.019745 500.843750,319.057495 
	C499.262970,319.059326 497.682892,319.665039 496.102509,319.989563 
	C495.584503,320.189880 495.066498,320.390228 493.872498,320.492310 
	C491.477997,321.489990 489.759460,322.585938 488.040955,323.681885 
	C486.972565,325.068207 485.904144,326.454498 484.202881,328.041382 
	C483.041870,329.150269 482.513641,330.058594 481.985413,330.966888 
	C481.985413,330.966888 482.005707,330.999115 481.652740,331.070557 
	C480.600128,331.571808 479.572601,331.833435 479.252411,332.457794 
	C476.509674,337.805878 471.854858,338.112915 466.563965,338.080200 
	C439.123230,337.910309 411.680939,338.011871 384.239166,337.992828 
	C378.238007,337.988678 371.744446,339.439178 367.866669,332.701019 
	C367.612183,332.258728 366.676025,332.208740 366.056946,331.976288 
	C366.056946,331.976288 365.999481,331.990906 365.988373,331.615479 
	C364.701355,329.813995 363.425476,328.387909 362.149597,326.961823 
	C361.739258,326.618134 361.328918,326.274475 360.855713,325.285431 
	C358.004333,319.818237 353.375641,319.002380 348.407196,319.000427 
	C320.265991,318.989441 292.124756,318.983337 263.983551,319.001068 
	C254.653366,319.006958 250.264450,322.686859 248.960022,332.031769 
	C248.343918,336.445526 246.557449,338.212799 241.854248,338.096313 
	C221.976837,337.604034 202.090958,337.436249 182.207428,337.214752 
	C169.682693,337.075165 157.156662,337.050659 144.631210,336.974548 
	C144.489243,326.386688 144.285782,315.799164 144.224030,305.210815 
	C144.170883,296.096802 144.279358,286.981842 144.483154,277.424011 
z"/>
<path fill="#F57825" opacity="1.000000" stroke="none" 
	d="
M598.987671,222.982300 
	C580.321899,222.988190 561.656128,222.996674 542.990356,222.999313 
	C522.036804,223.002289 501.082275,222.876556 480.129944,223.037994 
	C462.472504,223.174026 444.818634,223.789688 427.161285,223.904419 
	C416.953522,223.970734 406.742920,223.320969 396.531982,223.258606 
	C386.494385,223.197281 376.454590,223.583969 366.416107,223.566727 
	C356.022644,223.548889 345.629364,223.147018 335.236420,223.162476 
	C325.166901,223.177429 315.098511,223.578552 305.028351,223.677307 
	C298.567139,223.740692 292.103729,223.539856 285.641022,223.498688 
	C258.343109,223.324829 231.045273,223.125854 203.747070,223.016266 
	C184.794510,222.940170 165.841431,222.994827 146.475037,222.627655 
	C147.409454,220.491089 148.675858,218.647919 150.124329,216.961075 
	C152.352478,214.366241 154.705582,211.878723 157.005676,209.345657 
	C157.005676,209.345657 157.190323,208.941818 157.772156,208.879211 
	C164.092300,204.190353 169.848938,199.586609 175.564041,194.931870 
	C182.062073,189.639389 188.523010,184.301361 195.347977,179.206848 
	C196.499252,179.611496 197.305481,179.961914 198.105545,179.948395 
	C215.026962,179.662537 231.947678,179.335693 248.896210,179.483337 
	C248.942780,189.599335 248.745438,199.257736 249.141479,208.891754 
	C249.233795,211.137619 250.869568,214.485565 252.645935,215.194397 
	C254.749634,216.033829 258.234222,215.281982 260.307953,213.952637 
	C265.181824,210.828293 269.528992,206.892624 274.166962,203.388016 
	C285.419037,194.885574 296.715393,186.441727 308.341736,178.200485 
	C310.654633,178.617188 312.619202,178.967346 314.584778,178.973145 
	C332.023254,179.024536 349.461914,179.014954 366.914001,179.490326 
	C366.947876,189.708221 366.875122,199.460556 367.025696,209.209442 
	C367.107819,214.524429 371.516998,217.826202 375.519653,215.313385 
	C378.743195,213.289703 381.208771,210.058716 384.010651,207.363388 
	C384.010651,207.363388 384.206848,206.951462 384.794861,206.886169 
	C388.590698,203.972870 391.798584,201.124832 395.006439,198.276810 
	C395.006439,198.276810 395.156616,197.902649 395.727203,197.856918 
	C404.167725,191.748566 411.936127,185.546204 419.969330,179.708206 
	C422.389282,177.949554 425.521637,176.226868 428.368042,176.157990 
	C443.015839,175.803574 457.677979,176.097595 472.332428,175.929184 
	C476.787445,175.877991 478.135956,177.762787 478.045624,181.938370 
	C477.862030,190.428345 477.660828,198.945999 478.184448,207.407837 
	C478.364899,210.324005 480.032990,213.806885 482.173279,215.784286 
	C485.173676,218.556427 488.087952,215.410568 490.509766,213.610275 
	C506.389191,201.806152 522.180176,189.883041 538.409302,178.082413 
	C541.278992,178.442490 543.738403,178.948563 546.199829,178.958557 
	C563.798035,179.030106 581.396667,179.000595 598.994995,179.471680 
	C598.992493,194.287521 598.990051,208.634903 598.987671,222.982300 
z"/>
<path fill="#F9C756" opacity="1.000000" stroke="none" 
	d="
M356.839966,629.967224 
	C356.723633,620.568481 356.607269,611.169739 357.117004,601.383972 
	C361.211517,600.664795 364.679810,600.043884 368.148376,600.042419 
	C475.907257,599.997437 583.666138,600.012939 691.425049,600.019165 
	C691.535400,601.425293 691.645813,602.831360 691.307861,604.858154 
	C690.573059,611.570374 689.957581,617.669922 690.106445,623.750732 
	C690.221619,628.457642 688.802917,630.095764 683.907104,630.089966 
	C574.884888,629.961182 465.862396,629.978027 356.839966,629.967224 
z"/>
<path fill="#F4CF5F" opacity="1.000000" stroke="none" 
	d="
M356.648926,630.402466 
	C465.862396,629.978027 574.884888,629.961182 683.907104,630.089966 
	C688.802917,630.095764 690.221619,628.457642 690.106445,623.750732 
	C689.957581,617.669922 690.573059,611.570374 691.142334,605.254395 
	C691.478149,616.659851 692.249084,628.343567 691.384460,639.904846 
	C690.499207,651.742004 680.255554,659.619019 667.648071,659.623352 
	C593.373413,659.649048 519.098694,659.640137 444.824036,659.641479 
	C419.177612,659.641968 393.531189,659.649597 367.884766,659.631104 
	C359.371918,659.625000 356.388184,656.717224 356.336121,648.317871 
	C356.300018,642.491699 356.412048,636.664490 356.648926,630.402466 
z"/>
<path fill="#F8BB4F" opacity="1.000000" stroke="none" 
	d="
M691.594971,599.576843 
	C583.666138,600.012939 475.907257,599.997437 368.148376,600.042419 
	C364.679810,600.043884 361.211517,600.664795 357.301086,600.996338 
	C356.723389,596.932556 356.587708,592.869324 356.874329,588.144775 
	C357.548218,581.310669 357.799835,575.137817 358.516815,568.972839 
	C402.774628,568.993164 446.567047,569.005676 490.359467,569.018188 
	C490.638031,572.595398 490.916595,576.172607 491.160797,580.521240 
	C491.687897,581.891357 492.249390,582.490051 492.810852,583.088745 
	C493.094299,583.292664 493.377716,583.496582 493.893433,584.288879 
	C495.909760,585.584473 497.691376,586.900940 499.478241,586.908081 
	C530.477295,587.032227 561.477234,587.055664 592.476379,586.939880 
	C598.255676,586.918274 601.635742,583.256836 602.066833,577.496277 
	C602.178711,576.002075 602.226074,574.503052 602.752686,573.004883 
	C629.987183,573.002258 656.772095,573.027954 683.556702,572.957458 
	C686.178284,572.950562 688.798340,572.351501 691.419067,572.027283 
	C691.534302,581.063049 691.649597,590.098755 691.594971,599.576843 
z"/>
<path fill="#F7C254" opacity="1.000000" stroke="none" 
	d="
M144.638016,581.996216 
	C144.493774,572.575989 144.278702,563.156189 144.225037,553.735413 
	C144.170303,544.128845 144.274231,534.521362 144.895706,524.466858 
	C161.107056,523.787048 176.731323,523.380066 192.355789,523.372681 
	C207.290756,523.365601 222.225815,523.783386 237.161118,523.994934 
	C242.163971,524.065857 247.897202,522.545715 249.448090,529.852600 
	C249.466919,529.941345 249.741684,529.975830 249.896973,530.035645 
	C250.061371,536.638489 250.344635,543.241028 250.364975,549.844299 
	C250.405258,562.931213 250.300415,576.018494 249.769073,589.432373 
	C248.879257,589.079712 248.055603,588.344360 248.137497,587.729736 
	C248.968353,581.494690 245.538071,580.857910 240.409103,580.906067 
	C217.442642,581.121948 194.472473,580.909058 171.504791,581.045532 
	C162.547623,581.098755 153.593521,581.664062 144.638016,581.996216 
z"/>
<path fill="#F6B54C" opacity="1.000000" stroke="none" 
	d="
M250.075470,529.596802 
	C249.741684,529.975830 249.466919,529.941345 249.448090,529.852600 
	C247.897202,522.545715 242.163971,524.065857 237.161118,523.994934 
	C222.225815,523.783386 207.290756,523.365601 192.355789,523.372681 
	C176.731323,523.380066 161.107056,523.787048 145.055618,524.025757 
	C144.486847,512.947632 144.300583,501.863464 144.219681,490.778534 
	C144.168869,483.818634 144.276230,476.857574 144.862000,469.436340 
	C152.022491,468.815430 158.632889,468.563080 165.244858,468.511292 
	C191.328812,468.307007 217.413177,468.119354 243.497604,468.087463 
	C245.627060,468.084869 247.757980,469.304932 249.888214,469.956909 
	C250.056137,476.572723 250.345566,483.188202 250.366241,489.804474 
	C250.407242,502.922089 250.299957,516.040161 250.075470,529.596802 
z"/>
<path fill="#F9AB44" opacity="1.000000" stroke="none" 
	d="
M250.065720,469.613464 
	C247.757980,469.304932 245.627060,468.084869 243.497604,468.087463 
	C217.413177,468.119354 191.328812,468.307007 165.244858,468.511292 
	C158.632889,468.563080 152.022491,468.815430 145.027786,468.996124 
	C144.535095,468.247345 144.425964,467.478088 144.731674,466.146362 
	C144.981400,463.391144 144.816284,461.198303 144.651169,459.005493 
	C144.541306,444.640991 144.431427,430.276459 144.908417,415.467285 
	C179.956711,415.025146 214.418137,415.027710 248.901184,415.496521 
	C248.943588,418.098663 248.903046,420.237213 248.996750,422.369904 
	C249.268524,428.554962 249.594193,434.737671 249.898727,440.921295 
	C250.013565,450.370880 250.128403,459.820435 250.065720,469.613464 
z"/>
<path fill="#F8CD5B" opacity="1.000000" stroke="none" 
	d="
M144.476624,582.439880 
	C153.593521,581.664062 162.547623,581.098755 171.504791,581.045532 
	C194.472473,580.909058 217.442642,581.121948 240.409103,580.906067 
	C245.538071,580.857910 248.968353,581.494690 248.137497,587.729736 
	C248.055603,588.344360 248.879257,589.079712 249.588379,589.864258 
	C250.007523,601.687256 250.120880,613.405029 249.656845,625.555542 
	C247.281967,625.692627 245.485687,625.148682 243.686798,625.139832 
	C226.091537,625.054199 208.494736,624.926880 190.900620,625.076355 
	C175.941956,625.203430 160.986252,625.678772 146.018524,625.531921 
	C146.003540,622.629578 146.162491,620.181396 145.956665,617.764404 
	C145.650269,614.166626 145.086243,610.590881 144.631851,607.005737 
	C144.526321,598.965027 144.420792,590.924316 144.476624,582.439880 
z"/>
<path fill="#F8AE46" opacity="1.000000" stroke="none" 
	d="
M490.544128,568.581299 
	C446.567047,569.005676 402.774628,568.993164 358.499451,568.508423 
	C358.037018,557.355408 358.057404,546.674683 358.541534,535.995361 
	C374.624359,535.997864 390.243408,535.999390 405.862457,535.999817 
	C431.617279,536.000549 457.372742,536.095947 483.126251,535.912781 
	C487.753967,535.879883 489.366791,537.409058 489.102936,541.951843 
	C488.968658,544.263489 489.909698,546.637573 490.364624,548.983459 
	C490.486023,555.370422 490.607422,561.757446 490.544128,568.581299 
z"/>
<path fill="#F4993C" opacity="1.000000" stroke="none" 
	d="
M250.081085,440.564697 
	C249.594193,434.737671 249.268524,428.554962 248.996750,422.369904 
	C248.903046,420.237213 248.943588,418.098663 248.935791,415.025513 
	C248.964142,403.426605 249.013168,392.764893 248.982193,382.103394 
	C248.963806,375.774872 248.387131,375.155426 242.259705,375.016510 
	C237.468582,374.907898 232.672943,374.999298 227.879318,374.999512 
	C212.923309,375.000214 197.965836,375.130341 183.011765,374.960144 
	C170.212067,374.814514 157.416306,374.324188 144.618805,373.986328 
	C144.513733,361.945709 144.408661,349.905060 144.467407,337.419495 
	C157.156662,337.050659 169.682693,337.075165 182.207428,337.214752 
	C202.090958,337.436249 221.976837,337.604034 241.854248,338.096313 
	C246.557449,338.212799 248.343918,336.445526 248.960022,332.031769 
	C250.264450,322.686859 254.653366,319.006958 263.983551,319.001068 
	C292.124756,318.983337 320.265991,318.989441 348.407196,319.000427 
	C353.375641,319.002380 358.004333,319.818237 360.828735,325.006989 
	C356.064270,321.271179 350.520874,320.106903 344.247314,320.158478 
	C318.136108,320.373077 292.022125,320.233337 265.909210,320.258240 
	C254.334854,320.269287 250.417862,324.247772 250.399841,335.929504 
	C250.346237,370.689026 250.307785,405.448578 250.081085,440.564697 
z"/>
<path fill="#F59E3F" opacity="1.000000" stroke="none" 
	d="
M144.460236,374.431824 
	C157.416306,374.324188 170.212067,374.814514 183.011765,374.960144 
	C197.965836,375.130341 212.923309,375.000214 227.879318,374.999512 
	C232.672943,374.999298 237.468582,374.907898 242.259705,375.016510 
	C248.387131,375.155426 248.963806,375.774872 248.982193,382.103394 
	C249.013168,392.764893 248.964142,403.426605 248.914185,414.559235 
	C214.418137,415.027710 179.956711,415.025146 145.069214,415.026367 
	C144.529327,401.645905 144.415482,388.261597 144.460236,374.431824 
z"/>
<path fill="#F69035" opacity="1.000000" stroke="none" 
	d="
M601.164795,466.295624 
	C601.107361,465.718109 601.049988,465.140564 601.307861,463.872772 
	C601.814209,461.479004 602.005188,459.775543 602.450562,457.792847 
	C604.713745,457.008911 606.717712,456.088562 608.732117,456.065094 
	C624.868469,455.877106 641.007690,455.935547 657.144287,455.762299 
	C668.577515,455.639526 680.008118,455.273804 691.439880,455.016510 
	C691.549561,469.710999 691.659180,484.405487 691.213989,499.544464 
	C683.610229,499.922516 676.560425,499.902557 669.512451,499.778564 
	C659.369690,499.600128 649.229126,499.252258 639.085876,499.148315 
	C626.804382,499.022430 614.521057,499.075439 602.185425,498.578796 
	C602.098816,492.031525 602.164612,485.953705 601.999268,479.882233 
	C601.875854,475.349152 601.453857,470.824188 601.164795,466.295624 
z"/>
<path fill="#F4993C" opacity="1.000000" stroke="none" 
	d="
M366.102112,332.316711 
	C366.676025,332.208740 367.612183,332.258728 367.866669,332.701019 
	C371.744446,339.439178 378.238007,337.988678 384.239166,337.992828 
	C411.680939,338.011871 439.123230,337.910309 466.563965,338.080200 
	C471.854858,338.112915 476.509674,337.805878 479.252411,332.457794 
	C479.572601,331.833435 480.600128,331.571808 481.634644,331.064941 
	C481.188965,332.238342 480.515167,333.572357 479.612000,334.726959 
	C463.623169,355.167877 447.607758,375.588013 431.594940,396.010132 
	C425.579254,403.682343 421.670471,403.703247 415.565216,395.875671 
	C403.803741,380.796326 392.152283,365.631226 380.404449,350.541199 
	C375.721375,344.525909 370.903687,338.615387 366.102112,332.316711 
z"/>
<path fill="#F4A141" opacity="1.000000" stroke="none" 
	d="
M602.238525,499.051025 
	C614.521057,499.075439 626.804382,499.022430 639.085876,499.148315 
	C649.229126,499.252258 659.369690,499.600128 669.512451,499.778564 
	C676.560425,499.902557 683.610229,499.922516 691.052795,499.986450 
	C691.556274,516.684631 691.666138,533.385254 691.323608,550.314087 
	C690.585632,549.617004 690.114807,548.705688 690.043823,547.764282 
	C689.466064,540.099976 689.422302,540.004883 681.974365,540.005310 
	C655.407349,540.006897 628.840393,540.030029 602.217407,539.574707 
	C602.187073,525.753357 602.212769,512.402161 602.238525,499.051025 
z"/>
<path fill="#F7A23F" opacity="1.000000" stroke="none" 
	d="
M490.548798,548.549377 
	C489.909698,546.637573 488.968658,544.263489 489.102936,541.951843 
	C489.366791,537.409058 487.753967,535.879883 483.126251,535.912781 
	C457.372742,536.095947 431.617279,536.000549 405.862457,535.999817 
	C390.243408,535.999390 374.624359,535.997864 358.523682,535.527710 
	C358.035828,528.744568 358.021210,522.430603 358.025757,516.116577 
	C358.030914,508.930481 358.702087,508.117859 365.965912,508.018524 
	C375.601349,507.886688 385.239990,507.965363 394.877136,507.991791 
	C401.058075,508.008728 406.105560,510.025482 409.515686,515.633423 
	C411.398621,518.729858 413.733551,521.640076 416.300232,524.197144 
	C417.729095,525.620728 420.051605,526.147339 421.971405,527.078125 
	C425.270874,525.147827 428.570312,523.217590 432.389435,520.974609 
	C433.284485,519.953613 433.659912,519.245300 434.035309,518.536987 
	C434.679626,517.518494 435.323914,516.500061 436.559082,515.175720 
	C438.058258,513.507446 438.966614,512.144958 439.874939,510.782501 
	C439.874939,510.782501 440.001343,510.300385 440.506989,510.106201 
	C442.056427,508.943848 443.100189,507.975647 444.603577,507.005981 
	C460.168030,507.011963 475.272858,507.019409 490.377686,507.026855 
	C490.496094,520.723022 490.614502,534.419128 490.548798,548.549377 
z"/>
<path fill="#FAD55F" opacity="1.000000" stroke="none" 
	d="
M146.029236,626.000000 
	C160.986252,625.678772 175.941956,625.203430 190.900620,625.076355 
	C208.494736,624.926880 226.091537,625.054199 243.686798,625.139832 
	C245.485687,625.148682 247.281967,625.692627 249.481476,625.995117 
	C249.981094,636.402527 250.078705,646.802979 249.497131,657.606812 
	C222.351685,658.009277 195.885330,657.989136 169.419159,658.043640 
	C167.307571,658.047974 165.197052,658.567749 163.086044,658.847900 
	C162.576141,658.817017 162.066223,658.786072 161.098602,658.237427 
	C158.590652,656.887085 156.540405,656.054443 154.490143,655.221802 
	C152.608261,653.539612 150.726395,651.857422 148.809479,649.535645 
	C148.278793,648.278931 147.783142,647.661804 147.287491,647.044617 
	C147.054291,646.790283 146.821106,646.535889 146.672516,645.695618 
	C146.371246,644.415894 145.985382,643.722046 145.599518,643.028198 
	C145.400665,642.569946 145.201813,642.111694 145.271973,640.930603 
	C145.703751,635.471863 145.866486,630.735901 146.029236,626.000000 
z"/>
<path fill="#F9B148" opacity="1.000000" stroke="none" 
	d="
M602.273376,540.044983 
	C628.840393,540.030029 655.407349,540.006897 681.974365,540.005310 
	C689.422302,540.004883 689.466064,540.099976 690.043823,547.764282 
	C690.114807,548.705688 690.585632,549.617004 691.155151,550.752197 
	C691.545227,557.688416 691.651367,564.414612 691.588257,571.584045 
	C688.798340,572.351501 686.178284,572.950562 683.556702,572.957458 
	C656.772095,573.027954 629.987183,573.002258 602.694946,572.538147 
	C602.216125,561.396851 602.244751,550.720947 602.273376,540.044983 
z"/>
<path fill="#F3802C" opacity="1.000000" stroke="none" 
	d="
M691.604248,454.572510 
	C680.008118,455.273804 668.577515,455.639526 657.144287,455.762299 
	C641.007690,455.935547 624.868469,455.877106 608.732117,456.065094 
	C606.717712,456.088562 604.713745,457.008911 602.188721,457.778687 
	C601.503601,458.086304 601.334778,458.128876 601.165894,458.171417 
	C601.103333,457.845856 600.983459,457.519775 600.986572,457.194855 
	C601.170593,437.801483 598.016113,443.331757 616.720337,429.915771 
	C617.925415,429.286285 618.494446,428.755005 619.063416,428.223724 
	C619.467529,427.806702 619.871582,427.389709 620.863770,426.906616 
	C621.993469,426.330933 622.534973,425.821350 623.076538,425.311798 
	C624.401978,424.198242 625.727478,423.084686 627.753784,421.898834 
	C630.601135,421.069397 632.746155,419.663025 634.894348,419.658112 
	C651.603943,419.619995 668.315430,419.782013 685.022583,420.086151 
	C687.180786,420.125427 689.317810,421.332092 691.464600,421.998016 
	C691.565918,432.708191 691.667236,443.418335 691.604248,454.572510 
z"/>
<path fill="#EA6D28" opacity="1.000000" stroke="none" 
	d="
M538.000000,177.998779 
	C522.180176,189.883041 506.389191,201.806152 490.509766,213.610275 
	C488.087952,215.410568 485.173676,218.556427 482.173279,215.784286 
	C480.032990,213.806885 478.364899,210.324005 478.184448,207.407837 
	C477.660828,198.945999 477.862030,190.428345 478.045624,181.938370 
	C478.135956,177.762787 476.787445,175.877991 472.332428,175.929184 
	C457.677979,176.097595 443.015839,175.803574 428.368042,176.157990 
	C425.521637,176.226868 422.389282,177.949554 419.969330,179.708206 
	C411.936127,185.546204 404.167725,191.748566 395.926086,197.823959 
	C404.956207,189.906601 414.309326,181.917847 423.771698,174.060654 
	C436.715820,163.312332 449.764771,152.690292 462.720276,141.955566 
	C466.261169,139.021622 469.990509,136.978287 474.571777,139.154053 
	C479.146637,141.326736 479.942444,145.524612 479.932343,150.105743 
	C479.892853,168.096954 479.915771,186.088272 479.917206,204.079559 
	C479.917328,205.578812 479.590912,207.183563 480.016510,208.552704 
	C480.660858,210.625565 481.362152,213.321106 482.931763,214.260101 
	C484.152222,214.990234 487.119385,213.963409 488.651337,212.828247 
	C502.302643,202.712814 515.806641,192.398621 529.355530,182.144928 
	C547.819214,168.171799 566.297424,154.217667 584.736755,140.212433 
	C588.132812,137.633011 591.683472,136.046173 595.815613,138.118576 
	C599.898010,140.166061 601.008911,143.936768 601.008789,148.181000 
	C601.007263,204.320908 601.003601,260.460815 600.986755,316.600739 
	C600.986572,317.255463 600.806213,317.910126 600.430786,318.766357 
	C600.044739,305.279327 599.937927,291.590759 599.752197,277.435150 
	C599.448059,259.286591 599.222717,241.605118 598.992554,223.452972 
	C598.990051,208.634903 598.992493,194.287521 598.996521,179.002655 
	C598.998291,168.088196 599.240479,158.101532 598.843018,148.140427 
	C598.731873,145.352768 597.449341,141.795090 595.434753,140.093323 
	C592.481384,137.598495 588.829224,139.193497 585.849670,141.453003 
	C579.767578,146.065384 573.657227,150.640656 567.593689,155.277252 
	C557.714294,162.831696 547.863098,170.423035 538.000000,177.998779 
z"/>
<path fill="#F17225" opacity="1.000000" stroke="none" 
	d="
M691.625000,421.554321 
	C689.317810,421.332092 687.180786,420.125427 685.022583,420.086151 
	C668.315430,419.782013 651.603943,419.619995 634.894348,419.658112 
	C632.746155,419.663025 630.601135,421.069397 628.081787,421.862762 
	C633.599060,417.363983 639.426697,412.744751 645.393005,408.312103 
	C656.603455,399.983398 667.783691,391.604095 679.240417,383.624817 
	C681.650330,381.946411 685.423767,380.805267 688.167542,381.369202 
	C692.000732,382.157074 691.921509,386.284760 691.905273,389.690826 
	C691.855225,400.164032 691.823975,410.637360 691.625000,421.554321 
z"/>
<path fill="#F26F22" opacity="1.000000" stroke="none" 
	d="
M248.868530,179.016861 
	C231.947678,179.335693 215.026962,179.662537 198.105545,179.948395 
	C197.305481,179.961914 196.499252,179.611496 195.523560,178.924988 
	C197.083237,176.714371 198.864258,175.055847 200.536346,173.293930 
	C203.395584,170.281113 206.186584,167.203506 209.006271,164.153137 
	C209.006271,164.153137 209.386276,163.956558 209.950317,163.890457 
	C216.628952,158.768570 222.813751,153.794647 228.837051,148.632309 
	C234.116409,144.107574 238.908447,138.538864 247.054047,141.966812 
	C247.054047,141.966812 247.002090,141.997787 247.080872,142.367706 
	C247.729263,154.830719 248.298904,166.923782 248.868530,179.016861 
z"/>
<path fill="#F4963A" opacity="1.000000" stroke="none" 
	d="
M490.560608,506.588379 
	C475.272858,507.019409 460.168030,507.011963 444.753540,506.717163 
	C446.586243,503.198242 448.728607,499.966644 450.870972,496.735107 
	C450.871002,496.735107 450.976074,496.276855 451.488586,496.078613 
	C456.429474,490.773590 460.750916,485.567627 465.345428,480.615051 
	C466.907410,478.931305 469.101837,476.847595 471.103363,476.740326 
	C477.540344,476.395325 484.022217,476.887543 490.486755,477.056885 
	C490.572357,486.754517 490.657928,496.452209 490.560608,506.588379 
z"/>
<path fill="#E69746" opacity="1.000000" stroke="none" 
	d="
M421.699066,526.887573 
	C420.051605,526.147339 417.729095,525.620728 416.300232,524.197144 
	C413.733551,521.640076 411.398621,518.729858 409.515686,515.633423 
	C406.105560,510.025482 401.058075,508.008728 394.877136,507.991791 
	C385.239990,507.965363 375.601349,507.886688 365.965912,508.018524 
	C358.702087,508.117859 358.030914,508.930481 358.025757,516.116577 
	C358.021210,522.430603 358.035828,528.744568 358.059875,535.526245 
	C358.057404,546.674683 358.037018,557.355408 358.034058,568.500610 
	C357.799835,575.137817 357.548218,581.310669 357.032043,587.712646 
	C356.596069,587.140564 356.274384,586.339294 356.274841,585.538147 
	C356.292145,554.610474 356.338928,523.682800 357.041687,492.379150 
	C363.179749,492.005829 368.671783,491.764191 374.132599,492.073303 
	C380.837524,492.452820 387.516418,493.292450 394.206543,493.933167 
	C400.639801,501.903259 407.030853,509.907959 413.527710,517.825867 
	C416.037201,520.884277 418.786621,523.745850 421.699066,526.887573 
z"/>
<path fill="#E98D3C" opacity="1.000000" stroke="none" 
	d="
M394.132812,493.590149 
	C387.516418,493.292450 380.837524,492.452820 374.132599,492.073303 
	C368.671783,491.764191 363.179749,492.005829 357.213074,492.003845 
	C356.587830,480.202637 356.355347,468.400146 356.435272,456.599762 
	C356.445312,455.120880 357.968872,452.571350 359.031647,452.438232 
	C360.560486,452.246765 362.841248,453.394043 363.882996,454.701477 
	C374.050995,467.462921 384.027832,480.376709 394.132812,493.590149 
z"/>
<path fill="#EA6D28" opacity="1.000000" stroke="none" 
	d="
M248.896210,179.483337 
	C248.298904,166.923782 247.729263,154.830719 247.096344,142.341736 
	C248.168900,144.830566 250.238190,147.699341 250.287888,150.602661 
	C250.592590,168.403336 250.439590,186.211823 250.440903,204.017715 
	C250.441010,205.515366 250.101105,207.128967 250.545029,208.483612 
	C251.216812,210.533646 251.986557,213.196564 253.569794,214.099213 
	C254.840240,214.823517 257.786499,213.857468 259.292328,212.719528 
	C270.044830,204.594101 280.620697,196.234924 291.248718,187.944885 
	C311.192749,172.388184 331.154633,156.854263 351.058075,141.245804 
	C354.788330,138.320480 358.609131,136.018906 363.341400,138.483643 
	C367.810028,140.811066 368.352295,145.095444 368.338409,149.637192 
	C368.280426,168.607788 368.209717,187.579987 368.442993,206.547897 
	C368.473480,209.025360 369.615265,212.388474 371.419891,213.630722 
	C372.636414,214.468140 376.051514,212.543411 378.244995,211.398224 
	C380.126129,210.416107 381.669220,208.786514 383.686218,207.403320 
	C381.208771,210.058716 378.743195,213.289703 375.519653,215.313385 
	C371.516998,217.826202 367.107819,214.524429 367.025696,209.209442 
	C366.875122,199.460556 366.947876,189.708221 366.937561,179.019531 
	C366.957062,168.450821 367.012695,158.819595 366.952728,149.189087 
	C366.929474,145.453323 366.457947,141.753372 362.536499,139.869827 
	C358.394379,137.880325 355.157898,140.104446 352.088074,142.481934 
	C345.012054,147.962143 337.933838,153.442490 330.966766,159.059601 
	C323.245117,165.285080 315.646240,171.662842 307.993896,177.974274 
	C296.715393,186.441727 285.419037,194.885574 274.166962,203.388016 
	C269.528992,206.892624 265.181824,210.828293 260.307953,213.952637 
	C258.234222,215.281982 254.749634,216.033829 252.645935,215.194397 
	C250.869568,214.485565 249.233795,211.137619 249.141479,208.891754 
	C248.745438,199.257736 248.942780,189.599335 248.896210,179.483337 
z"/>
<path fill="#E08740" opacity="1.000000" stroke="none" 
	d="
M490.664948,476.641907 
	C484.022217,476.887543 477.540344,476.395325 471.103363,476.740326 
	C469.101837,476.847595 466.907410,478.931305 465.345428,480.615051 
	C460.750916,485.567627 456.429474,490.773590 451.687134,495.952698 
	C459.408112,485.498474 467.430603,474.962311 475.485291,464.450775 
	C478.109070,461.026733 480.672394,457.536163 483.562073,454.346619 
	C484.613708,453.185852 487.040192,451.836853 487.942291,452.304443 
	C489.360687,453.039581 490.793701,455.207001 490.863556,456.826477 
	C491.141846,463.281036 490.895355,469.758179 490.664948,476.641907 
z"/>
<path fill="#C09E68" opacity="1.000000" stroke="none" 
	d="
M602.217407,539.574707 
	C602.244751,550.720947 602.216125,561.396851 602.245239,572.539551 
	C602.226074,574.503052 602.178711,576.002075 602.066833,577.496277 
	C601.635742,583.256836 598.255676,586.918274 592.476379,586.939880 
	C561.477234,587.055664 530.477295,587.032227 499.478241,586.908081 
	C497.691376,586.900940 495.909760,585.584473 494.024048,584.519226 
	C496.704773,584.533752 499.486359,585.222351 502.269806,585.230103 
	C531.226685,585.311157 560.183777,585.293335 589.140808,585.278625 
	C598.477478,585.273926 600.542603,583.187561 600.562927,573.755554 
	C600.639648,538.145142 600.695251,502.534760 600.961792,466.609985 
	C601.453857,470.824188 601.875854,475.349152 601.999268,479.882233 
	C602.164612,485.953705 602.098816,492.031525 602.185364,498.578796 
	C602.212769,512.402161 602.187073,525.753357 602.217407,539.574707 
z"/>
<path fill="#EA6D28" opacity="1.000000" stroke="none" 
	d="
M496.539581,320.124512 
	C497.682892,319.665039 499.262970,319.059326 500.843750,319.057495 
	C533.589050,319.019745 566.334473,319.050598 599.543335,319.113342 
	C598.512146,319.533295 597.018066,320.232147 595.522827,320.234650 
	C562.674133,320.289490 529.825378,320.267090 496.539581,320.124512 
z"/>
<path fill="#F7C254" opacity="1.000000" stroke="none" 
	d="
M163.415222,659.087158 
	C165.197052,658.567749 167.307571,658.047974 169.419159,658.043640 
	C195.885330,657.989136 222.351685,658.009277 249.266205,658.027527 
	C248.844376,658.569946 247.974060,659.554138 247.104340,659.553589 
	C219.317642,659.536560 191.531036,659.424255 163.415222,659.087158 
z"/>
<path fill="#EA6D28" opacity="1.000000" stroke="none" 
	d="
M208.667404,164.136307 
	C206.186584,167.203506 203.395584,170.281113 200.536346,173.293930 
	C198.864258,175.055847 197.083237,176.714371 195.175644,178.701279 
	C188.523010,184.301361 182.062073,189.639389 175.564041,194.931870 
	C169.848938,199.586609 164.092300,204.190353 157.989288,208.832794 
	C162.767365,204.188660 167.850952,199.460938 173.065002,194.881729 
	C184.785141,184.588501 196.570007,174.368988 208.667404,164.136307 
z"/>
<path fill="#EA6D28" opacity="1.000000" stroke="none" 
	d="
M156.687012,209.398193 
	C154.705582,211.878723 152.352478,214.366241 150.124329,216.961075 
	C148.675858,218.647919 147.409454,220.491089 146.046600,222.624130 
	C146.015701,235.214630 146.034012,247.445465 145.948273,259.675568 
	C145.934708,261.610748 145.451584,263.542633 144.892532,265.789368 
	C144.463623,251.393433 144.248322,236.683838 144.312439,221.975479 
	C144.318985,220.474457 145.737259,218.702011 146.960144,217.538803 
	C149.952866,214.692093 153.214767,212.128357 156.687012,209.398193 
z"/>
<path fill="#EA6D28" opacity="1.000000" stroke="none" 
	d="
M246.981216,141.630875 
	C238.908447,138.538864 234.116409,144.107574 228.837051,148.632309 
	C222.813751,153.794647 216.628952,158.768570 210.163696,163.875488 
	C213.118713,160.736145 216.331909,157.442413 219.752060,154.379776 
	C224.708130,149.941772 229.745316,145.587799 234.877014,141.354523 
	C239.114578,137.858841 242.531036,137.950104 246.981216,141.630875 
z"/>
<path fill="#F7C254" opacity="1.000000" stroke="none" 
	d="
M146.018509,625.531860 
	C145.866486,630.735901 145.703751,635.471863 145.338623,640.553833 
	C144.821457,636.338013 144.328979,631.779663 144.234634,627.213196 
	C144.101639,620.774536 144.263428,614.329773 144.465515,607.446655 
	C145.086243,610.590881 145.650269,614.166626 145.956665,617.764404 
	C146.162491,620.181396 146.003540,622.629578 146.018509,625.531860 
z"/>
<path fill="#E08740" opacity="1.000000" stroke="none" 
	d="
M450.558594,496.858704 
	C448.728607,499.966644 446.586243,503.198242 444.293915,506.718628 
	C443.100189,507.975647 442.056427,508.943848 440.715576,509.969788 
	C443.694397,505.679138 446.970276,501.330719 450.558594,496.858704 
z"/>
<path fill="#EA6D28" opacity="1.000000" stroke="none" 
	d="
M394.681458,198.329163 
	C391.798584,201.124832 388.590698,203.972870 385.018433,206.840973 
	C387.888184,204.034546 391.122314,201.208038 394.681458,198.329163 
z"/>
<path fill="#F6B54C" opacity="1.000000" stroke="none" 
	d="
M144.484924,459.417969 
	C144.816284,461.198303 144.981400,463.391144 144.891235,465.783081 
	C144.530197,463.931641 144.424423,461.881042 144.484924,459.417969 
z"/>
<path fill="#EA6D28" opacity="1.000000" stroke="none" 
	d="
M488.365631,323.638092 
	C489.759460,322.585938 491.477997,321.489990 493.452332,320.480286 
	C492.035492,321.575806 490.362885,322.585083 488.365631,323.638092 
z"/>
<path fill="#C09E68" opacity="1.000000" stroke="none" 
	d="
M600.975830,458.433716 
	C601.334778,458.128876 601.503601,458.086304 601.934326,458.057861 
	C602.005188,459.775543 601.814209,461.479004 601.396729,463.444366 
	C601.042053,462.036163 600.913940,460.366058 600.975830,458.433716 
z"/>
<path fill="#F7C254" opacity="1.000000" stroke="none" 
	d="
M154.648193,655.526611 
	C156.540405,656.054443 158.590652,656.887085 160.806763,657.975098 
	C158.917145,657.430847 156.861679,656.631165 154.648193,655.526611 
z"/>
<path fill="#F4993C" opacity="1.000000" stroke="none" 
	d="
M362.184967,327.285736 
	C363.425476,328.387909 364.701355,329.813995 366.002686,331.589539 
	C364.758820,330.495880 363.489563,329.052765 362.184967,327.285736 
z"/>
<path fill="#E08740" opacity="1.000000" stroke="none" 
	d="
M439.573761,510.882629 
	C438.966614,512.144958 438.058258,513.507446 436.845642,514.951660 
	C437.451721,513.683228 438.362122,512.333008 439.573761,510.882629 
z"/>
<path fill="#F4993C" opacity="1.000000" stroke="none" 
	d="
M482.284912,330.854370 
	C482.513641,330.058594 483.041870,329.150269 483.898468,328.163147 
	C483.679382,328.970184 483.131897,329.856049 482.284912,330.854370 
z"/>
<path fill="#E08740" opacity="1.000000" stroke="none" 
	d="
M433.846802,518.713684 
	C433.659912,519.245300 433.284485,519.953613 432.695801,520.781189 
	C432.874481,520.230408 433.266418,519.560425 433.846802,518.713684 
z"/>
<path fill="#C09E68" opacity="1.000000" stroke="none" 
	d="
M492.794800,582.779480 
	C492.249390,582.490051 491.687897,581.891357 491.184174,580.961060 
	C491.754211,581.243103 492.266479,581.856628 492.794800,582.779480 
z"/>
<path fill="#F17225" opacity="1.000000" stroke="none" 
	d="
M622.779541,425.320312 
	C622.534973,425.821350 621.993469,426.330933 621.165527,426.895264 
	C621.413696,426.409637 621.948120,425.869232 622.779541,425.320312 
z"/>
<path fill="#F7C254" opacity="1.000000" stroke="none" 
	d="
M145.524033,643.334656 
	C145.985382,643.722046 146.371246,644.415894 146.717834,645.429810 
	C146.268555,645.046936 145.858551,644.344055 145.524033,643.334656 
z"/>
<path fill="#F7C254" opacity="1.000000" stroke="none" 
	d="
M147.261765,647.356934 
	C147.783142,647.661804 148.278793,648.278931 148.775742,649.215210 
	C148.263367,648.912598 147.749695,648.290894 147.261765,647.356934 
z"/>
<path fill="#F17225" opacity="1.000000" stroke="none" 
	d="
M618.755615,428.235596 
	C618.494446,428.755005 617.925415,429.286285 617.052979,429.866241 
	C617.315613,429.359100 617.881714,428.803253 618.755615,428.235596 
z"/>
<path fill="#EE6E25" opacity="1.000000" stroke="none" 
	d="
M538.409302,178.082428 
	C547.863098,170.423035 557.714294,162.831696 567.593689,155.277252 
	C573.657227,150.640656 579.767578,146.065384 585.849670,141.453003 
	C588.829224,139.193497 592.481384,137.598495 595.434753,140.093323 
	C597.449341,141.795090 598.731873,145.352768 598.843018,148.140427 
	C599.240479,158.101532 598.998291,168.088196 598.996582,178.534210 
	C581.396667,179.000595 563.798035,179.030106 546.199829,178.958557 
	C543.738403,178.948563 541.278992,178.442490 538.409302,178.082428 
z"/>
<path fill="#F16F23" opacity="1.000000" stroke="none" 
	d="
M308.341736,178.200500 
	C315.646240,171.662842 323.245117,165.285080 330.966766,159.059601 
	C337.933838,153.442490 345.012054,147.962143 352.088074,142.481934 
	C355.157898,140.104446 358.394379,137.880325 362.536499,139.869827 
	C366.457947,141.753372 366.929474,145.453323 366.952728,149.189087 
	C367.012695,158.819595 366.957062,168.450821 366.924072,178.552551 
	C349.461914,179.014954 332.023254,179.024536 314.584778,178.973145 
	C312.619202,178.967346 310.654633,178.617188 308.341736,178.200500 
z"/>
</svg>